<svg xmlns="http://www.w3.org/2000/svg" viewBox="0 0 1045 340" height="340" width="1045"><style>.s0{fill:#3f95d1}.s1{fill:#ef4636}</style><g clip-path="url(#clipPath16)" transform="matrix(1.25 0 0 -1.25 0 340)"><path d="M108 147.326v28.7h96c1-5.1 1.6-11.1 1.6-17.6 0-21.5-5.9-48.1-24.8-67.1-18.5-19.2-42.1-29.4-73.3-29.4-57.9 0-106.5 47.1-106.5 105s48.6 105 106.5 105c32 0 54.8-12.5 71.9-28.9l-20.2-20.3c-12.3 11.5-28.9 20.5-51.7 20.5-42.2 0-75.3-34-75.3-76.3 0-42.2 33-76.3 75.3-76.3 27.4 0 43 11 53 21 8.1 8.1 13.5 19.8 15.6 35.8l-68.1-.1z" fill="#3f95d1"/><path d="M322.146 129.49c0 24.3-17.7 41-38.1 41-20.5 0-38.1-16.6-38.1-41 0-24.1 17.7-41 38.1-41 20.4 0 38.1 16.9 38.1 41m29.7 0c0-38.9-30.5-67.6-67.8-67.6-37.4 0-67.8 28.7-67.8 67.6 0 39.2 30.5 67.6 67.8 67.6s67.8-28.4 67.8-67.6" fill="#ef4636"/><path d="M470.146 129.49c0 24.3-17.7 41-38.1 41-20.5 0-38.1-16.6-38.1-41 0-24.1 17.7-41 38.1-41 20.4 0 38.1 16.9 38.1 41m29.7 0c0-38.9-30.5-67.6-67.8-67.6-37.4 0-67.8 28.7-67.8 67.6 0 39.2 30.5 67.6 67.8 67.6s67.8-28.4 67.8-67.6" fill="#ffc20d"/><path d="M615.587 129.234c0 23.8-15.9 41.2-36.1 41.2-20.5 0-37.6-17.4-37.6-41.2 0-23.6 17.2-40.7 37.6-40.7 20.2 0 36.1 17.1 36.1 40.7m26.1 63.7v-121.3c0-49.9-29.4-70.4-64.3-70.4-32.8 0-52.5 22-59.9 39.9l25.9 10.8c4.6-11 15.9-24.1 34-24.1 22.3 0 36.1 13.8 36.1 39.7v9.7h-1c-6.7-8.2-19.5-15.4-35.6-15.4-33.8 0-64.8 29.4-64.8 67.3 0 38.1 31 67.8 64.8 67.8 16.1 0 28.9-7.2 35.6-15.1h1v11h28.2z" fill="#3f95d1"/><path d="M692 66h-29.7v198H692V66z" fill="#2fb455"/><path d="M735.764 131.539l60.4 25.1c-3.3 8.4-13.3 14.3-25.1 14.3-15.1 0-36.1-13.3-35.3-39.4m70.9-24.3l23-15.4c-7.4-11-25.3-30-56.3-30-38.4 0-67.1 29.7-67.1 67.6 0 40.2 28.9 67.6 63.7 67.6 35.1 0 52.2-27.9 57.9-43l3.1-7.6-90.3-37.4c6.9-13.6 17.7-20.5 32.8-20.5 15.1 0 25.6 7.4 33.3 18.7" fill="#ef4636"/></g></svg>