<?xml version="1.0" encoding="utf-8"?>
<!-- Generator: Adobe Illustrator 19.0.0, SVG Export Plug-In . SVG Version: 6.00 Build 0)  -->
<svg version="1.1" xmlns="http://www.w3.org/2000/svg" xmlns:xlink="http://www.w3.org/1999/xlink" x="0px" y="0px"
	 viewBox="0 0 442.8 113.4" style="enable-background:new 0 0 442.8 113.4;" xml:space="preserve">
<style type="text/css">
	.st0{fill-rule:evenodd;clip-rule:evenodd;fill:#3C754C;}
	.st1{fill-rule:evenodd;clip-rule:evenodd;fill:#808285;}
</style>
<g id="Guides_For_Artboard">
</g>
<g id="Camada_1">
	<g>
		<path class="st0" d="M92,0c16.9,0,32.1,7.5,42.5,19.3h-12.6v18.8l-16.8-27.2H92.9H91H78.9L62,38.1V19.3H49.4C59.8,7.5,75.1,0,92,0
			L92,0z M135,19.9c8,9.3,13,21.2,13.6,34.2H135C135,42.7,135,31.3,135,19.9L135,19.9z M148.5,59.9c-0.7,12.8-5.7,24.5-13.5,33.6
			c0-11.2,0-22.4,0-33.6H148.5L148.5,59.9z M134.2,94.4c-10.4,11.6-25.5,18.9-42.2,18.9c-16.7,0-31.8-7.3-42.2-18.9H62v-21
			l16.8,27.2H91h1.9h12.2l16.8-27.2v21H134.2L134.2,94.4z M48.9,93.5c-7.8-9.2-12.8-20.8-13.5-33.6h13.5V93.5L48.9,93.5z M35.4,54.1
			c0.6-13,5.6-24.9,13.6-34.2v34.2H35.4L35.4,54.1z M92,12.6l-25.3,44L92,98.9l25.3-42.4L92,12.6z"/>
		<path class="st1" d="M368.8,77.7h-5.1h-0.9v-0.9V36.6v-0.9h0.9h26.8h0v0c3.3,0,6,0.2,8.2,0.5c0.4,0.1,0.7,0.1,1,0.2
			c1.8,0.4,3.1,0.9,4.1,1.5l0,0l0,0v0l0,0l0,0l0,0c0.3,0.2,0.6,0.5,0.9,0.7c0.3,0.3,0.6,0.6,0.8,0.9c1.2,1.6,1.8,3.8,1.8,6.6v5.3v0
			h0c0,1.9-0.3,3.6-0.8,4.9c-0.1,0.2-0.2,0.4-0.3,0.7c-0.6,1.1-1.4,2-2.4,2.6l0,0l0,0v0c-0.3,0.2-0.7,0.4-1.1,0.6
			c-0.4,0.2-0.9,0.3-1.4,0.5c-2.5,0.7-6.1,1.1-10.9,1.1h-20.8v14.9v0.9H368.8L368.8,77.7z M369.7,55.5h22.2h0v0
			c1.8,0,3.3-0.1,4.4-0.3c0.2,0,0.4-0.1,0.5-0.1c0.8-0.2,1.4-0.4,1.8-0.7v0l0,0c0.1-0.1,0.2-0.2,0.3-0.3h0c0.1-0.1,0.2-0.2,0.3-0.4
			c0.5-0.9,0.8-2.2,0.8-4h0v-1.9h0v0h0c0-1.3-0.1-2.3-0.4-3.1c0-0.1-0.1-0.2-0.1-0.4l0,0c-0.2-0.5-0.5-0.9-0.9-1.2v0l0,0l0,0
			c-0.1-0.1-0.3-0.2-0.4-0.3c-0.2-0.1-0.4-0.2-0.6-0.2c-1.3-0.4-3.2-0.6-5.7-0.6h-22.2V55.5z"/>
		<polygon class="st1" points="313.7,77.7 308.8,77.7 307.9,77.7 307.9,76.8 307.9,36.6 307.9,35.7 308.8,35.7 316.1,35.7 
			316.7,35.7 317,36.2 333.2,69.5 349.4,36.2 349.6,35.7 350.2,35.7 357.8,35.7 358.7,35.7 358.7,36.6 358.7,76.8 358.7,77.7 
			357.8,77.7 352.8,77.7 351.9,77.7 351.9,76.8 351.9,45.3 336.1,77.2 335.8,77.7 335.3,77.7 331.5,77.7 330.9,77.7 330.6,77.2 
			314.7,45.3 314.7,76.8 314.7,77.7 		"/>
		<path class="st1" d="M274.8,78.2L274.8,78.2L274.8,78.2c-2.3,0-4.2-0.1-5.8-0.2c-0.3,0-0.6,0-0.8-0.1c-1.3-0.1-2.4-0.3-3.3-0.4
			c-1.1-0.2-2.1-0.5-3-0.9c-0.9-0.4-1.8-0.9-2.5-1.4l0,0c-0.8-0.6-1.5-1.4-2.1-2.2c-0.6-0.8-1-1.7-1.4-2.8h0l0,0v0
			c-0.1-0.3-0.2-0.6-0.3-0.9c-0.1-0.3-0.2-0.6-0.2-0.9c-0.4-1.7-0.5-3.6-0.5-5.9v-11c0-1.7,0.1-3.2,0.2-4.6c0.2-1.4,0.4-2.6,0.8-3.6
			h0l0,0l0,0l0,0l0,0c0.1-0.3,0.2-0.6,0.3-0.9c0.1-0.3,0.2-0.6,0.4-0.8c0.7-1.4,1.6-2.5,2.8-3.4l0,0l0,0c0.2-0.2,0.4-0.3,0.6-0.5
			l0,0c0.2-0.2,0.5-0.3,0.7-0.4c1.2-0.7,2.6-1.1,4.2-1.5c1.1-0.2,2.5-0.4,4.1-0.5c1.6-0.1,3.6-0.2,5.7-0.2h8.3
			c2.2,0,4.1,0.1,5.7,0.2c1.6,0.1,3,0.3,4.1,0.5l0,0l0,0v0c0.4,0.1,0.7,0.1,0.9,0.2c0.3,0.1,0.6,0.2,0.9,0.2
			c1.5,0.5,2.7,1.1,3.7,1.9c0.8,0.6,1.5,1.3,2,2.2c0.6,0.8,1,1.8,1.4,2.8l0,0l0,0v0c0.1,0.3,0.2,0.6,0.3,0.9c0.1,0.3,0.2,0.6,0.2,1
			c0.4,1.7,0.5,3.7,0.5,6v11.2c0,1.6-0.1,3-0.3,4.4c-0.2,1.3-0.4,2.5-0.8,3.5c-0.4,1-0.8,2-1.4,2.8c-0.6,0.8-1.2,1.6-2,2.2v0l0,0
			l0,0c-0.2,0.2-0.4,0.3-0.6,0.5c-0.2,0.1-0.4,0.3-0.7,0.4c-1.2,0.7-2.6,1.2-4.2,1.5l0,0h0c-0.3,0.1-0.7,0.1-1,0.2
			c-0.3,0-0.7,0.1-1.1,0.1c-2,0.2-4.6,0.3-7.8,0.3H274.8L274.8,78.2z M285.4,41.4h-13.1c-1.3,0-2.4,0.1-3.4,0.2l0,0
			c-1,0.1-1.8,0.3-2.4,0.5c-0.6,0.2-1.2,0.5-1.7,0.8c-0.5,0.3-0.9,0.7-1.2,1.1c-0.3,0.3-0.5,0.7-0.6,1.1c-0.2,0.4-0.3,0.8-0.4,1.3
			l0,0l0,0l0,0c0,0.1-0.1,0.3-0.1,0.4c0,0.1,0,0.3-0.1,0.5c-0.1,1-0.2,2.3-0.2,4V52v9.9v0h0c0,1.2,0,2.2,0.1,3l0,0v0
			c0,0.1,0,0.2,0,0.4c0.1,0.6,0.1,1.1,0.2,1.5l0,0c0.1,0.5,0.3,0.9,0.4,1.3c0.2,0.4,0.4,0.7,0.6,1.1c0.3,0.4,0.8,0.8,1.2,1.1
			c0.5,0.3,1.1,0.6,1.7,0.8c0.7,0.2,1.5,0.4,2.4,0.5l0,0c1,0.1,2.1,0.2,3.4,0.2v0h13.1c1.3,0,2.4-0.1,3.4-0.2c1-0.1,1.8-0.3,2.4-0.5
			c0.6-0.2,1.2-0.5,1.7-0.8c0.5-0.3,0.9-0.7,1.2-1.1l0,0l0,0v0c0.1-0.1,0.1-0.2,0.2-0.3l0,0c0.1-0.1,0.1-0.2,0.2-0.3
			c0.3-0.5,0.5-1.1,0.7-1.7c0.1-0.4,0.2-1,0.2-1.8c0.1-0.7,0.1-1.6,0.1-2.7v-1.3V50.7v0h0c0-1,0-1.9-0.1-2.7l0-0.4l0,0
			c-0.1-0.6-0.1-1-0.2-1.4c-0.1-0.4-0.2-0.8-0.4-1.2c-0.2-0.4-0.4-0.7-0.6-1c-0.3-0.4-0.7-0.8-1.2-1.1c-0.5-0.3-1.1-0.6-1.7-0.8
			c-0.7-0.2-1.5-0.4-2.4-0.5C287.9,41.5,286.7,41.4,285.4,41.4z"/>
		<polygon class="st1" points="213.9,77.7 208.8,77.7 207.9,77.7 207.9,76.8 207.9,36.6 207.9,35.7 208.8,35.7 213.9,35.7 
			214.8,35.7 214.8,36.6 214.8,53 243.3,53 243.3,36.6 243.3,35.7 244.2,35.7 249.3,35.7 250.2,35.7 250.2,36.6 250.2,76.8 
			250.2,77.7 249.3,77.7 244.2,77.7 243.3,77.7 243.3,76.8 243.3,59.2 214.8,59.2 214.8,76.8 214.8,77.7 		"/>
		<polygon class="st1" points="166.7,77.7 161.5,77.7 160.6,77.7 160.6,76.8 160.6,36.6 160.6,35.7 161.5,35.7 166.7,35.7 
			167.6,35.7 167.6,36.6 167.6,52.1 191.9,35.8 192.1,35.7 192.4,35.7 201.2,35.7 204.2,35.7 201.7,37.4 173.8,55.9 203.7,76 
			206.2,77.7 203.2,77.7 194.2,77.7 193.9,77.7 193.7,77.5 167.6,59.6 167.6,76.8 167.6,77.7 		"/>
		<path class="st1" d="M260.1,104.1l-3.2-12.3h1.8l2.3,9.9l1.9-9.9h1.8l2.1,9.9l2.1-9.9h1.7l-3,12.3h-1.7l-2.2-9.6l-1.9,9.6H260.1
			L260.1,104.1z M274.7,104.1l-3.2-12.3h1.8l2.3,9.9l1.9-9.9h1.8l2.1,9.9l2.1-9.9h1.7l-3,12.3h-1.7l-2.2-9.6l-1.9,9.6H274.7
			L274.7,104.1z M289.3,104.1l-3.2-12.3h1.8l2.3,9.9l1.9-9.9h1.8l2.1,9.9l2.1-9.9h1.7l-3,12.3h-1.7l-2.2-9.6l-1.9,9.6H289.3
			L289.3,104.1z M300.7,104.1v-2.3h2v2.3H300.7L300.7,104.1z M305.8,104.1V87.5h1.7v9.8l4.2-5.6h2l-3.7,4.7l4,7.7h-2.1l-3-6.1
			l-1.4,1.7v4.4H305.8L305.8,104.1z M315.1,104.1V87.5h1.7v5.5c0.3-0.5,0.7-0.9,1.2-1.2c0.5-0.3,1.1-0.4,1.8-0.4
			c1,0,1.7,0.2,2.2,0.7c0.5,0.5,0.8,1.2,0.8,2.1v9.8h-1.7v-9c0-0.7-0.1-1.3-0.4-1.6c-0.3-0.3-0.7-0.5-1.3-0.5
			c-0.8,0-1.4,0.2-1.8,0.7c-0.5,0.5-0.7,1.1-0.7,2v8.4H315.1L315.1,104.1z M325,97.9c0-2.2,0.4-3.9,1.1-4.9c0.7-1.1,1.8-1.6,3.3-1.6
			c1.5,0,2.6,0.5,3.3,1.6c0.7,1.1,1.1,2.7,1.1,4.9c0,2.2-0.4,3.9-1,4.9c-0.7,1-1.8,1.6-3.3,1.6c-1.5,0-2.6-0.5-3.3-1.6
			C325.4,101.8,325,100.2,325,97.9L325,97.9z M326.9,97.9c0,1.8,0.2,3.1,0.6,3.9c0.4,0.8,1,1.1,1.9,1.1c0.9,0,1.5-0.4,1.9-1.2
			c0.4-0.8,0.6-2.1,0.6-3.9c0-1.8-0.2-3.1-0.6-3.9c-0.4-0.8-1-1.1-1.9-1.1c-0.9,0-1.5,0.4-1.9,1.1C327.1,94.8,326.9,96.1,326.9,97.9
			L326.9,97.9z M336,104.1V91.7h1.6v1.5c0.3-0.6,0.8-1,1.3-1.3c0.5-0.3,1.2-0.5,1.9-0.5c0.7,0,1.3,0.2,1.7,0.5
			c0.5,0.3,0.8,0.8,0.9,1.3c0.4-0.6,0.8-1.1,1.3-1.4c0.5-0.3,1.2-0.5,1.9-0.5c1,0,1.8,0.3,2.3,0.8c0.5,0.5,0.8,1.3,0.8,2.3v9.6H348
			v-8.5c0-1-0.1-1.7-0.4-2c-0.3-0.4-0.7-0.5-1.4-0.5c-0.7,0-1.3,0.2-1.8,0.7c-0.5,0.5-0.7,1.1-0.7,1.8v8.6H342v-8.6
			c0-0.9-0.1-1.6-0.4-1.9c-0.3-0.4-0.7-0.6-1.4-0.6c-0.8,0-1.4,0.2-1.8,0.7c-0.5,0.5-0.7,1-0.7,1.7v8.7H336L336,104.1z M354.1,97.8
			c0,1.7,0.2,2.9,0.6,3.7c0.4,0.8,1,1.2,1.9,1.2c0.8,0,1.3-0.4,1.7-1.2c0.4-0.8,0.5-2.1,0.5-3.8c0-1.7-0.2-2.9-0.5-3.7
			c-0.4-0.8-0.9-1.1-1.7-1.1c-0.9,0-1.5,0.4-1.8,1.1C354.2,94.8,354.1,96.1,354.1,97.8L354.1,97.8z M352.4,108.2V91.7h1.7v1.6
			c0.1-0.5,0.4-1,0.9-1.3c0.5-0.3,1.1-0.5,1.7-0.5c1.3,0,2.3,0.5,2.9,1.6c0.7,1.1,1,2.7,1,4.8c0,2.2-0.3,3.9-0.9,4.9
			c-0.6,1-1.6,1.6-2.8,1.6c-0.6,0-1.1-0.1-1.6-0.4c-0.5-0.3-0.8-0.7-1.1-1.2v5.5H352.4L352.4,108.2z M363.3,104.1v-2.3h2v2.3H363.3
			L363.3,104.1z M374.3,99.7l1.7,0c0,1.5-0.3,2.6-1,3.5c-0.7,0.8-1.7,1.2-2.9,1.2c-1.4,0-2.4-0.5-3.1-1.6c-0.7-1.1-1-2.7-1-5
			c0-2.2,0.3-3.8,1-4.8c0.7-1.1,1.7-1.6,3.1-1.6c1.2,0,2.1,0.4,2.7,1.1c0.7,0.7,1,1.7,1,2.9v0.3h-1.7c0-0.9-0.2-1.5-0.6-2
			c-0.3-0.5-0.8-0.7-1.4-0.7c-0.8,0-1.4,0.4-1.8,1.1c-0.4,0.7-0.5,2-0.5,3.8c0,1.8,0.2,3.1,0.5,3.9c0.4,0.8,1,1.1,1.8,1.1
			c0.6,0,1.1-0.3,1.5-0.8C374.1,101.5,374.3,100.7,374.3,99.7L374.3,99.7z M378.1,97.9c0-2.2,0.4-3.9,1.1-4.9
			c0.7-1.1,1.8-1.6,3.3-1.6c1.5,0,2.6,0.5,3.3,1.6c0.7,1.1,1.1,2.7,1.1,4.9c0,2.2-0.4,3.9-1.1,4.9c-0.7,1-1.8,1.6-3.3,1.6
			c-1.5,0-2.6-0.5-3.3-1.6C378.4,101.8,378.1,100.2,378.1,97.9L378.1,97.9z M379.9,97.9c0,1.8,0.2,3.1,0.6,3.9
			c0.4,0.8,1,1.1,1.9,1.1c0.9,0,1.5-0.4,1.9-1.2c0.4-0.8,0.6-2.1,0.6-3.9c0-1.8-0.2-3.1-0.6-3.9c-0.4-0.8-1-1.1-1.9-1.1
			c-0.9,0-1.5,0.4-1.9,1.1C380.1,94.8,379.9,96.1,379.9,97.9L379.9,97.9z M389,104.1V91.7h1.6v1.5c0.3-0.6,0.8-1,1.3-1.3
			c0.5-0.3,1.2-0.5,1.9-0.5c0.7,0,1.3,0.2,1.7,0.5c0.5,0.3,0.8,0.8,0.9,1.3c0.4-0.6,0.8-1.1,1.3-1.4c0.5-0.3,1.2-0.5,1.9-0.5
			c1,0,1.8,0.3,2.3,0.8c0.5,0.5,0.8,1.3,0.8,2.3v9.6h-1.8v-8.5c0-1-0.1-1.7-0.4-2c-0.3-0.4-0.7-0.5-1.4-0.5c-0.7,0-1.3,0.2-1.8,0.7
			c-0.5,0.5-0.7,1.1-0.7,1.8v8.6h-1.8v-8.6c0-0.9-0.1-1.6-0.4-1.9c-0.3-0.4-0.7-0.6-1.4-0.6c-0.8,0-1.4,0.2-1.8,0.7
			c-0.5,0.5-0.7,1-0.7,1.7v8.7H389z"/>
	</g>
</g>
</svg>
