<svg id="Layer_1" data-name="Layer 1" xmlns="http://www.w3.org/2000/svg" viewBox="0 0 683.5 590.66"><defs><style>.cls-1{fill:#231f20;}</style></defs><title>LNCLogo_FundoClaro</title><path class="cls-1" d="M370.55,185.73v48.76a5.63,5.63,0,0,1-11.26,0V185.73a29.13,29.13,0,1,0-58.26,0v48.76a5.63,5.63,0,0,1-11.26,0V185.73a40.39,40.39,0,1,1,80.79,0Z"/><path class="cls-1" d="M266.3,157.41v77.08a5.63,5.63,0,0,1-11.27,0V157.41a5.63,5.63,0,0,1,11.27,0Z"/><path class="cls-1" d="M267.6,130.53a6.94,6.94,0,1,1-6.93-6.94A7.13,7.13,0,0,1,267.6,130.53Z"/><path class="cls-1" d="M466.06,229.74c.42.51,4,5.11-.14,8.66a5.52,5.52,0,0,1-3.46,1.56c-2.57,0-4.63-2.92-4.65-2.94l-.1-.15-.12-.15L433.21,206l-3.66-4.61-3.7,4.57c-4,4.92-15.13,18.75-21.12,26.17l-4.1,5.08-.06.08,0,0c-.16.18-2.4,2.83-4.94,2.83a4.86,4.86,0,0,1-3.11-1.33c-2.16-1.83-2.24-3.34-2.26-3.84a7.64,7.64,0,0,1,2-4.83l.17-.17.14-.18c.43-.55,22.78-28.39,27.63-34.43l2.36-2.93-2.33-3-26.71-33.79,0,0,0,0c-.42-.51-4-5.12.14-8.67a5.56,5.56,0,0,1,3.47-1.57c2.55,0,4.62,2.92,4.62,2.93l.11.17.12.15,24,30.37,3.68,4.67,3.71-4.65c1.17-1.45,3.46-4.32,3.49-4.35l20.82-26.39,0,0,0-.05s2.33-2.92,5-2.92a4.87,4.87,0,0,1,3.08,1.3c2.18,1.78,2.28,3.29,2.31,3.79a7.67,7.67,0,0,1-1.94,4.89l-.12.13-.11.15-27,34.05-2.32,2.93,2.33,2.93L466,229.67Z"/><path class="cls-1" d="M236.69,233.46a5.57,5.57,0,0,1-5.57,5.57h-4.41c-14,0-25.12-4.19-33.17-12.46-12.77-13.08-12.82-31.49-12.79-33.55V129.4a5.57,5.57,0,1,1,11.13,0v63.72c0,1,.08,16,9.67,25.73,5.88,6,14.34,9,25.15,9h4.41A5.57,5.57,0,0,1,236.69,233.46Z"/><path class="cls-1" d="M130.87,283.61v49.48a5.54,5.54,0,0,1-11.09,0V283.61a5.54,5.54,0,1,1,11.09,0Z"/><path class="cls-1" d="M150.06,313.89H100.58a5.54,5.54,0,0,1,0-11.09h49.48a5.54,5.54,0,1,1,0,11.09Z"/><path class="cls-1" d="M130.87,390.43v49.48a5.54,5.54,0,0,1-11.09,0V390.43a5.54,5.54,0,1,1,11.09,0Z"/><path class="cls-1" d="M150.06,420.71H100.58a5.54,5.54,0,0,1,0-11.09h49.48a5.54,5.54,0,1,1,0,11.09Z"/><path class="cls-1" d="M297.38,299.54c0,10.38-5.68,10.66-11.79,10.66H251.91v6.68c0,12.93,10.09,20.89,24,20.89,11.94,0,14.07-5.82,16.77-5.82a2.87,2.87,0,0,1,2.56,2.56c0,2.7-7.39,8.24-19.61,8.24-16.77,0-28.71-10.37-28.71-25.86V299.11a25.23,25.23,0,1,1,50.45.42Zm-13.5,5.69c7,0,8.53-.85,8.53-5.26,0-10.23-8-21-20.18-21a20.38,20.38,0,0,0-20.32,20.18v6.11Z"/><path class="cls-1" d="M358.59,299.54c0,10.38-5.69,10.66-11.8,10.66H313.11v6.68c0,12.93,10.09,20.89,24,20.89,11.94,0,14.07-5.82,16.77-5.82a2.87,2.87,0,0,1,2.56,2.56c0,2.7-7.39,8.24-19.61,8.24-16.77,0-28.71-10.37-28.71-25.86V299.11a25.23,25.23,0,1,1,50.45.42Zm-13.5,5.69c7,0,8.53-.85,8.53-5.26,0-10.23-8-21-20.18-21a20.38,20.38,0,0,0-20.32,20.18v6.11Z"/><path class="cls-1" d="M412.35,298.83c0-11.23-8.24-19.89-18.33-19.89-9.52,0-19.33,7.68-19.33,20.6v39.79a2.64,2.64,0,0,1-2.56,2.56,2.52,2.52,0,0,1-2.42-2.56v-62.1a2.31,2.31,0,0,1,2.42-2.42,2.43,2.43,0,0,1,2.56,2.42v7.53a21.37,21.37,0,0,1,19-10.8c9.81,0,17.62,5.83,21.32,14.21,5-9.67,13.36-14.21,21.6-14.21,11.94,0,23.31,9.24,23.31,25.58v39.79a2.49,2.49,0,1,1-5,0V299.54c0-13.64-9.66-20.6-18.47-20.6a19.59,19.59,0,0,0-19.18,19.75v40.78a2.34,2.34,0,0,1-2.56,2.42,2.3,2.3,0,0,1-2.42-2.42Z"/><path class="cls-1" d="M176.71,423.27V406.21c0-14.49,8.24-25.86,26-25.86,11.37,0,18.62,5.4,18.62,8.38a2.62,2.62,0,0,1-2.56,2.42c-2.42,0-4.83-5.83-16.06-5.83-13.64,0-21,8-21,20.89v17.05c0,12.93,7.25,20.89,21.17,20.89,11.94,0,14.35-5.83,16.91-5.83a2.49,2.49,0,0,1,2.42,2.42c0,3-7.39,8.38-19.47,8.38C185.09,449.13,176.71,438,176.71,423.27Z"/><path class="cls-1" d="M254.17,380.35a21.37,21.37,0,0,0-19,10.8V337.5a2.18,2.18,0,0,0-.05-.25V299.39a25.75,25.75,0,0,0-25.58-25.58,21.36,21.36,0,0,0-19,10.8v-7.53a2.43,2.43,0,0,0-2.56-2.42,2.31,2.31,0,0,0-2.42,2.42v62.1a2.52,2.52,0,0,0,2.42,2.56,2.64,2.64,0,0,0,2.56-2.56V299.39c0-12.93,9.8-20.6,19.47-20.6,11.08,0,20.18,10.23,20.18,20.6v39.79a3,3,0,0,0,.05.56v106a2.52,2.52,0,0,0,2.42,2.56,2.64,2.64,0,0,0,2.56-2.56V405.93c0-12.93,9.81-20.61,19.47-20.61,11.08,0,20.18,10.23,20.18,20.61v39.79a2.43,2.43,0,0,0,2.42,2.56,2.46,2.46,0,0,0,2.56-2.56V405.93A25.75,25.75,0,0,0,254.17,380.35Z"/><path class="cls-1" d="M335.39,407.64v38.09a2.43,2.43,0,0,1-2.42,2.56,2.55,2.55,0,0,1-2.56-2.56v-7.39c-4.83,5.54-11.94,10.8-21.32,10.8-11.09,0-19.75-6-19.75-18.76,0-15.06,13.36-18.76,33.11-18.76h8v-4c0-10.66-5.26-22.31-18.76-22.31-8.81,0-13.07,3.84-14.78,3.84s-2.56-1.85-2.56-2.84c0-2.7,9-6,17.62-6C329.42,380.35,335.39,393.57,335.39,407.64Zm-5,9H322.6c-14.64,0-28.28,1.42-28.28,13.78,0,9.52,6.4,13.79,14.64,13.79,10.66,0,21.46-9.52,21.46-15.63Z"/><path class="cls-1" d="M390,405.93v17.34c0,13.5-9.76,25.86-23.26,25.86s-23.12-12.22-23.12-25.86V405.93c0-13.64,9.34-25.58,23.13-25.58C380.28,380.35,390,391.86,390,405.93Zm-5,0c0-10.37-6.92-20.61-18.29-20.61s-18.15,10.23-18.15,20.61v17.34c0,10.66,6.92,20.89,18.15,20.89s18.29-10.23,18.29-20.89Z"/><path class="cls-1" d="M425.4,385.33c-9.95,0-19.75,7.68-19.75,20.61v39.79a2.64,2.64,0,0,1-2.56,2.56,2.52,2.52,0,0,1-2.41-2.56v-62.1a2.31,2.31,0,0,1,2.41-2.42,2.43,2.43,0,0,1,2.56,2.42v7.53c3.27-5.54,9.8-10.8,19.75-10.8h5.26a2.52,2.52,0,0,1,2.42,2.56,2.49,2.49,0,0,1-2.42,2.41Z"/><path class="cls-1" d="M522.11,274.81a2.52,2.52,0,0,0-2.56,2.42v39.93c0,10.66-9,20.6-20.18,20.6s-20.3-10.07-20.32-20.57v-20h0V277.37a2.49,2.49,0,1,0-5,0v39.79s0,0,0,0v74c-3.13-5.54-7.49-10.8-17-10.8-13.93,0-23.55,11.51-23.55,25.58v17.34c0,13.5,9.76,25.86,23.27,25.86,8.67,0,14.17-5,17.29-10.8v7.39a2.64,2.64,0,0,0,2.56,2.56,2.52,2.52,0,0,0,2.41-2.56V332.06a25.29,25.29,0,0,0,20.32,10.68c13.64,0,25.15-11.94,25.15-25.58V277.23A2.4,2.4,0,0,0,522.11,274.81Zm-48,153.71c0,4.83-6.35,15.63-17.58,15.63-10.8,0-18-10.23-18-20.89V405.93c0-10.37,7.06-20.61,18.15-20.61,9.66,0,17.44,7.68,17.44,20.61Z"/><path class="cls-1" d="M504.16,361.86a4.48,4.48,0,1,1-9,0,4.48,4.48,0,0,1,9,0Z"/><path class="cls-1" d="M502.31,383.62v62.1a2.49,2.49,0,1,1-5,0v-62.1a2.39,2.39,0,0,1,2.41-2.42A2.43,2.43,0,0,1,502.31,383.62Z"/><path class="cls-1" d="M518.37,423.27V406.21c0-14.49,8.24-25.86,26-25.86,11.37,0,18.62,5.4,18.62,8.38a2.62,2.62,0,0,1-2.56,2.42c-2.42,0-4.83-5.83-16.06-5.83-13.64,0-21,8-21,20.89v17.05c0,12.93,7.25,20.89,21.17,20.89,11.94,0,14.35-5.83,16.91-5.83a2.49,2.49,0,0,1,2.42,2.42c0,3-7.39,8.38-19.47,8.38C526.75,449.13,518.37,438,518.37,423.27Z"/></svg>