<svg id="Layer_1" xmlns="http://www.w3.org/2000/svg" xmlns:xlink="http://www.w3.org/1999/xlink" viewBox="0 0 152 152"><style>.st0,.st1{fill:#004b6d}.st0{fill-rule:evenodd;clip-rule:evenodd}.st1{clip-path:url(#XMLID_8_)}.st2{opacity:.38}.st2,.st3{fill:#004b6d}.st4{font-family:&apos;Play&apos;}.st5{font-size:8.9612px}</style><g id="XMLID_2_"><g id="XMLID_113_"><g id="XMLID_40_"><path id="XMLID_41_" class="st0" d="M82.8 81.7L89 64.3c.1-.3.2-.7.3-1.1h2.6c.1.5.2.9.2 1.1l5.7 17.4 6-17.4c.1-.3.1-.5.1-.7 0-.1 0-.2-.1-.4h1.6c-.1.4-.3.8-.5 1.1l-6.5 19.3c-.2.6-.3 1-.3 1.1h-1.9c0-.4-.1-.8-.2-1.1l-6-18.5-6.6 18.5c-.2.6-.3 1-.4 1.1h-2c-.1-.4-.1-.8-.2-1.1l-6.2-19.3c-.2-.4-.3-.8-.4-1.1H77c.1.4.1.8.2 1.1l5.6 17.4z"/></g></g><g id="XMLID_102_"><g id="XMLID_37_"><path id="XMLID_38_" class="st0" d="M.2 81.1H10c1 0 1.8-.2 2.3-.5.6-.4.8-.9.8-1.5s-.2-1-.6-1.4c-.4-.4-1.2-.8-2.4-1.3l-3.9-1.5C4 74 2.4 73.1 1.5 72.1.6 71.2.2 70 .2 68.6c0-1.8.7-3.1 2-4.1 1.3-.9 3.2-1.4 5.7-1.4h8.4v3.6H6.8c-.8 0-1.4.2-1.8.5-.4.3-.6.8-.6 1.4 0 .4.2.8.6 1.2.4.4 1 .7 1.9 1.1l4.1 1.6c2.5 1 4.3 2 5.2 2.9.9.9 1.3 2.1 1.3 3.5 0 2-.8 3.5-2.3 4.5-1.6 1-4 1.5-7.2 1.5H.2v-3.8z"/></g></g><g id="XMLID_94_"><g id="XMLID_33_"><path id="XMLID_34_" class="st0" d="M36.2 84.5V74.1c0-2.2-.6-3.9-1.9-5.3-1.3-1.4-3-2-5-2-2.1 0-3.7.7-5 2-1.3 1.3-2 3.1-2 5.2s.7 3.9 2 5.3 3.1 2.1 5.2 2.1c.9 0 1.9-.2 2.8-.5.9-.3 1.8-.8 2.7-1.4v4c-1 .4-2 .7-3 1-1 .2-2 .3-3.1.3-1 0-2.1-.2-3.1-.5s-2-.7-2.8-1.3c-1.6-1-2.8-2.3-3.6-3.9-.8-1.5-1.2-3.3-1.2-5.2 0-3.1 1-5.7 3.1-7.7s4.7-3 7.9-3c2.1 0 4 .5 5.7 1.5 1.7 1 3.1 2.4 4 4.1.4.8.7 1.7.9 2.6.2.9.3 2.3.3 4.2v8.7h-3.9z"/></g></g><g id="XMLID_88_"><g id="XMLID_28_"><path id="XMLID_29_" class="st0" d="M43.3 84.7V62.1c0-2.6.8-4.5 2.3-5.8 1.5-1.3 3.8-1.9 6.9-1.9h2.4V58h-2.3c-1.9 0-3.3.4-4.1 1.2-.9.8-1.3 2-1.3 3.7v1.2h7.7v3.5h-7.7v17.3h-3.9z"/></g></g><g id="XMLID_82_"><g id="XMLID_30_"><path id="XMLID_32_" class="st0" d="M76.2 75.1c-.5 3-1.8 5.3-3.8 7-2 1.7-4.4 2.6-7.2 2.6-1 0-1.9-.1-2.9-.4-.9-.2-1.8-.6-2.7-1.1-1.7-1-3.1-2.4-4.1-4-1-1.6-1.4-3.4-1.4-5.4 0-1.4.3-2.8.8-4.1.6-1.3 1.4-2.5 2.4-3.5s2.3-1.8 3.6-2.4c1.3-.5 2.8-.8 4.2-.8 2.2 0 4.2.6 5.9 1.7 1.7 1.1 3.2 2.7 4.2 4.8L60.9 77l-1.6-2.8 10.6-5.7c-.7-.7-1.4-1.2-2.2-1.6-.8-.4-1.7-.5-2.7-.5-2 0-3.6.7-5 2.1-1.3 1.4-2 3.1-2 5.2 0 2 .7 3.8 2 5.2 1.3 1.4 3 2.1 4.9 2.1 1.9 0 3.4-.6 4.7-1.7 1.3-1.2 2-2.8 2.3-4.8l4.3.6z"/></g></g><g id="XMLID_74_"><g id="XMLID_51_"><path id="XMLID_52_" class="st0" d="M142.5 63.1h.9c2.6 0 4.6.9 6.2 2.6 1.6 1.9 2.4 4.5 2.4 7.9 0 3.6-.9 6.4-2.8 8.4-1.7 1.9-3.9 2.8-6.7 2.8v-1.3c2.2 0 3.8-.9 5-2.6 1.2-1.7 1.8-4.2 1.8-7.3 0-1.7-.2-3-.5-4.1-.3-1.1-.9-2-1.6-2.8-1.1-1.2-2.6-1.8-4.3-1.8h-.4v-1.8zm-6.9 4.3c1.8-2.6 4.1-4 6.9-4.3v1.7c-.9.1-1.8.3-2.7.7-1 .5-1.9 1.1-2.6 1.9-1.1 1.2-1.6 2.9-1.6 5.1 0 2.4 0 4.1.1 5 0 .9.1 1.5.2 1.9.3 1.1 1.1 2.1 2.4 2.9 1.3.8 2.6 1.2 4.2 1.2v1.3c-1.4 0-2.6-.2-3.7-.7-1.1-.4-2.3-1.2-3.5-2.2l-.9 2.5H133c.1-.5.1-.9.1-1.3V55.9c0-.4 0-.8-.1-1.3h2.8c-.1.5-.1.9-.1 1.3v11.5z"/></g></g><g id="XMLID_4_"><g id="XMLID_188_"><g id="XMLID_194_"><defs><path id="XMLID_195_" d="M130.4 75.4h-12.2v-3.8h6c-.4-3.3-2.4-4.9-6-4.9h-.1v-4.4c4 .1 7.1 1.2 9.2 3.5 2.2 2.2 3.2 5.4 3.1 9.6zm-12.2 5.5h.4c2.7 0 4.6-1.1 5.2-3.1l6.3.9c-1.8 4.4-5.7 6.7-11.6 6.7h-.3v-4.5zm0-5.5h-6.1c0 1.7.6 3.1 1.7 4.1 1.1.9 2.5 1.4 4.4 1.5v4.5c-4-.1-7.1-1.1-9.2-3.1-2.2-2.1-3.3-4.9-3.3-8.3 0-3.4 1.1-6.2 3.3-8.4 2.2-2.2 5.2-3.3 9-3.3h.3v4.4c-1.9 0-3.3.5-4.4 1.4-1.1.9-1.6 2.1-1.6 3.5h6v3.7z"/></defs><clipPath id="XMLID_7_"><use xlink:href="#XMLID_195_" overflow="visible"/></clipPath></g></g><g id="XMLID_172_"><path id="XMLID_184_" class="st0" d="M130.4 74.8h-12.2V71h6c-.4-3.3-2.4-4.9-6-4.9h-.1v-4.4c4 .1 7.1 1.2 9.2 3.5 2.2 2.3 3.2 5.5 3.1 9.6zm-12.2 5.5h.4c2.7 0 4.4-1 5-3l6.6.9c-1.8 4.4-5.9 6.6-11.8 6.6h-.3v-4.5zm0-5.5h-6.1c0 1.7.6 3.1 1.7 4.1 1.1.9 2.5 1.4 4.4 1.5v4.5c-4 0-7.1-1.1-9.2-3.1-2.2-2.1-3.3-4.9-3.3-8.3 0-3.4 1.1-6.2 3.3-8.4 2.2-2.2 5.2-3.3 9-3.3h.3v4.4c-1.9 0-3.3.5-4.4 1.4-1.1.9-1.6 2.1-1.6 3.5h6v3.7z"/><g id="XMLID_178_"><defs><path id="XMLID_179_" d="M130.4 75.4h-12.2v-3.8h6c-.4-3.3-2.4-4.9-6-4.9h-.1v-4.4c4 .1 7.1 1.2 9.2 3.5 2.2 2.2 3.2 5.4 3.1 9.6zm-12.2 5.5h.4c2.7 0 4.6-1.1 5.2-3.1l6.3.9c-1.8 4.4-5.7 6.7-11.6 6.7h-.3v-4.5zm0-5.5h-6.1c0 1.7.6 3.1 1.7 4.1 1.1.9 2.5 1.4 4.4 1.5v4.5c-4-.1-7.1-1.1-9.2-3.1-2.2-2.1-3.3-4.9-3.3-8.3 0-3.4 1.1-6.2 3.3-8.4 2.2-2.2 5.2-3.3 9-3.3h.3v4.4c-1.9 0-3.3.5-4.4 1.4-1.1.9-1.6 2.1-1.6 3.5h6v3.7z"/></defs><use xlink:href="#XMLID_179_" overflow="visible" fill-rule="evenodd" clip-rule="evenodd" fill="#004b6d"/><clipPath id="XMLID_8_"><use xlink:href="#XMLID_179_" overflow="visible"/></clipPath><path id="XMLID_183_" class="st1" d="M131.3 73.9c0 7.3-5.9 13.3-13.3 13.3-7.3 0-13.3-5.9-13.3-13.3 0-7.3 5.9-13.3 13.3-13.3 7.3 0 13.3 5.9 13.3 13.3z"/></g><path id="XMLID_177_" class="st2" d="M110.6 64.7c-.8.6.9 1.8 1.6 2.1 1.1.4 2.4-.4 3.5-.5 4-.6 5.9.5 6.5 1.1 1.5 1.4 2.6 1.4 3.9 1.5.3 0 1.5.1 1.8-.1.4-.2.2-.7 0-1-.9-1.7-1.7-3.1-3.6-4-2.1-1-5.1-1.5-8-1.2.1 0-3.5.4-5.7 2.1z"/><path id="XMLID_175_" class="st0" d="M130.2 67.3c-3.8 7-17 11.9-26.4 9.8 11.7 5.1 24.8.1 26.4-9.8z"/><path id="XMLID_173_" class="st0" d="M130.3 67.6c-3.8 7-17 11.9-26.4 9.8 11.7 5 24.9.1 26.4-9.8z"/></g><g id="XMLID_156_"><g id="XMLID_162_"><defs><path id="XMLID_163_" d="M130.4 75.4h-12.2v-3.8h6c-.4-3.3-2.4-4.9-6-4.9h-.1v-4.4c4 .1 7.1 1.2 9.2 3.5 2.2 2.2 3.2 5.4 3.1 9.6zm-12.2 5.5h.4c2.7 0 4.6-1.1 5.2-3.1l6.3.9c-1.8 4.4-5.7 6.7-11.6 6.7h-.3v-4.5zm0-5.5h-6.1c0 1.7.6 3.1 1.7 4.1 1.1.9 2.5 1.4 4.4 1.5v4.5c-4-.1-7.1-1.1-9.2-3.1-2.2-2.1-3.3-4.9-3.3-8.3 0-3.4 1.1-6.2 3.3-8.4 2.2-2.2 5.2-3.3 9-3.3h.3v4.4c-1.9 0-3.3.5-4.4 1.4-1.1.9-1.6 2.1-1.6 3.5h6v3.7z"/></defs><clipPath id="XMLID_9_"><use xlink:href="#XMLID_163_" overflow="visible"/></clipPath></g></g></g><text id="XMLID_3_" transform="translate(0 95.531)" class="st3 st4 st5">Segurança da Informação</text></g></svg>