<svg xmlns="http://www.w3.org/2000/svg" width="163.657" height="96.005" viewBox="0 0 163.657 96.005"><g fill="#0894D8"><path d="M48.849 95.666c-.329.164-.987.329-1.829.329-1.953 0-3.422-1.233-3.422-3.504 0-2.168 1.469-3.638 3.617-3.638.863 0 1.408.185 1.644.308l-.216.73c-.339-.164-.822-.288-1.398-.288-1.624 0-2.703 1.038-2.703 2.857 0 1.696.976 2.785 2.662 2.785.545 0 1.1-.113 1.459-.288l.186.709zM57.728 92.357c0 2.384-1.449 3.648-3.217 3.648-1.829 0-3.114-1.418-3.114-3.515 0-2.199 1.367-3.638 3.217-3.638 1.891.001 3.114 1.45 3.114 3.505zm-5.375.113c0 1.48.802 2.805 2.209 2.805 1.418 0 2.22-1.305 2.22-2.877 0-1.377-.719-2.816-2.209-2.816-1.48.001-2.22 1.367-2.22 2.888zM66.781 92.851c-.051-.966-.113-2.127-.103-2.991h-.031a40.726 40.726 0 0 1-.874 2.631l-1.223 3.36h-.678l-1.12-3.299c-.329-.976-.606-1.87-.802-2.692h-.02a93.835 93.835 0 0 1-.134 3.062l-.185 2.97h-.853l.483-6.926h1.141l1.182 3.35c.288.853.524 1.613.699 2.333h.031c.175-.699.421-1.459.73-2.333l1.233-3.35h1.141l.432 6.926h-.874l-.175-3.041zM77.098 92.851c-.051-.966-.113-2.127-.103-2.991h-.031a40.726 40.726 0 0 1-.874 2.631l-1.223 3.36h-.677l-1.12-3.299c-.329-.976-.606-1.87-.802-2.692h-.021a93.835 93.835 0 0 1-.134 3.062l-.185 2.97h-.853l.483-6.926H72.7l1.182 3.35c.288.853.524 1.613.699 2.333h.031c.175-.699.421-1.459.73-2.333l1.233-3.35h1.141l.432 6.926h-.874l-.176-3.041zM82.472 88.966v4.1c0 1.552.689 2.209 1.613 2.209 1.028 0 1.685-.678 1.685-2.209v-4.1h.904v4.039c0 2.127-1.12 3.001-2.621 3.001-1.418 0-2.487-.812-2.487-2.96v-4.08h.906zM90.282 95.892v-6.926h.976l2.22 3.504c.514.812.915 1.541 1.244 2.25l.021-.01c-.082-.925-.103-1.767-.103-2.847v-2.898h.843v6.926h-.904l-2.199-3.514c-.483-.771-.945-1.562-1.295-2.312l-.031.01c.051.873.072 1.706.072 2.857v2.96h-.844zM99.993 88.966v6.926h-.894v-6.926h.894zM104.925 89.726h-2.107v-.76h5.128v.76h-2.117v6.166h-.904v-6.166zM112.602 95.892v-2.939l-2.189-3.987h1.017l.976 1.911c.267.524.473.945.689 1.428h.021c.195-.452.432-.904.699-1.428l.997-1.911h1.017l-2.322 3.977v2.949h-.905z"/></g><g fill="#00386D"><path d="M1.809 68.691v8.201c0 3.103 1.377 4.419 3.227 4.419 2.055 0 3.371-1.356 3.371-4.419v-8.201h1.809v8.077c0 4.254-2.24 6.001-5.241 6.001C2.137 82.769 0 81.146 0 76.85v-8.159h1.809zM16.483 81.495l7.687-11.242v-.062h-7.03v-1.5h9.351v1.089l-7.646 11.201v.062h7.748v1.5h-10.11v-1.048zM34.692 68.691v5.796h6.7v-5.796h1.809v13.853h-1.809v-6.495h-6.7v6.495h-1.788V68.691h1.788zM52.202 68.691v5.796h6.7v-5.796h1.809v13.853h-1.809v-6.495h-6.7v6.495h-1.788V68.691h1.788zM79.763 75.473c0 4.768-2.898 7.296-6.433 7.296-3.658 0-6.227-2.836-6.227-7.029 0-4.398 2.733-7.276 6.433-7.276 3.781.001 6.227 2.898 6.227 7.009zm-10.749.226c0 2.96 1.603 5.611 4.419 5.611 2.836 0 4.439-2.61 4.439-5.755 0-2.754-1.439-5.631-4.419-5.631-2.959 0-4.439 2.733-4.439 5.775zM86.196 68.876c.904-.185 2.199-.288 3.432-.288 1.911 0 3.145.349 4.008 1.13.699.617 1.089 1.562 1.089 2.631 0 1.829-1.151 3.042-2.61 3.535v.062c1.069.37 1.706 1.357 2.035 2.795.452 1.932.781 3.268 1.069 3.802h-1.85c-.226-.391-.534-1.583-.925-3.309-.411-1.911-1.151-2.631-2.775-2.692h-1.685v6.001h-1.788V68.876zm1.788 6.309h1.829c1.911 0 3.124-1.048 3.124-2.631 0-1.788-1.295-2.569-3.186-2.59-.863 0-1.48.082-1.767.164v5.057zM113.263 75.473c0 4.768-2.898 7.296-6.433 7.296-3.658 0-6.228-2.836-6.228-7.029 0-4.398 2.734-7.276 6.433-7.276 3.782.001 6.228 2.898 6.228 7.009zm-10.749.226c0 2.96 1.603 5.611 4.419 5.611 2.836 0 4.439-2.61 4.439-5.755 0-2.754-1.439-5.631-4.419-5.631-2.959 0-4.439 2.733-4.439 5.775zM119.696 68.876a25.661 25.661 0 0 1 3.802-.288c2.569 0 4.398.596 5.611 1.726 1.233 1.13 1.952 2.733 1.952 4.974 0 2.261-.699 4.111-1.994 5.385-1.295 1.295-3.432 1.994-6.125 1.994-1.274 0-2.343-.062-3.247-.164V68.876zm1.788 12.249c.452.082 1.11.103 1.809.103 3.823 0 5.899-2.138 5.899-5.878.021-3.268-1.829-5.344-5.611-5.344-.925 0-1.624.082-2.096.185v10.934zM147.749 68.691v13.853h-1.788V68.691h1.788zM157.614 70.212h-4.213v-1.521h10.256v1.521h-4.234v12.332h-1.809V70.212z"/></g><path fill="#0894D8" d="M127.189 33.814v-.031h-.029l-6.65-7.193-.086.257-.171-.257-.354.39-.031-.004.004.034-3.231 3.554-3.527-3.327.01-.116-.146-.013-.024-.022-.022-.11-.088.006-9.675-9.127-.055.092-.073-.092-.383.386-.002-.001v.003l-3.761 3.793-.077-.006-.007.092-.234.237-.031-.008.003.035-4.932 4.974-.081.001-.016.097-3.604 3.635-8.196-9.791.014-.17-.168-.014-4.343-5.189-.183.301-.13.112-.202-.029.01.194-2.284 1.961-7.875-10.247-.064.576-.064-.062-23.143 28.111-4.346-4.09-.16.281-.225-.281-.314.385h-.071l.007.079-4.777 5.864-2.824 3.177.137.122-.12.147-.092-.04-.139.324L19.931 55.62l.128.128 9.587-11.271-1.757 4.081.354.152 2.253-5.232.757-.89 3.057.122.015-.385-2.755-.11 6.703-7.881.283 3.302h.257l.32-3.731 3.904 3.333-.001.009-.172-.038-.968 3.382.573.17.76-3.421 6.582.849-.004.019-5.055 2.987.196.332 4.747-2.805-1.388 6.36-3.457-1.152-.128.257 3.468 1.298v2.684l.128-.128.315-2.39.007.003.013-.092 3.696.924-2.273 4.029.068.038-.028.056 3.85 2.333-2.694 3.062.011.118-.011.011.012.007.501 5.516h.257l-.237-5.209 1.65.97.257-.128-1.925-1.246-.002-.039h-.058l-.028-.018 2.678-2.824.201-.15-3.931-2.725 2.016-3.573 3.585.618.065-.38-3.45-.595.373-.662-.336-.189-.107.189-1.389-6.777 4.233 4.884.257-.257-4.119-5.138h.142l6.418 2.954v-.257l-4.986-2.698h4.729v-.256l-6.013-.437-.728-.394 4.607-7.152 2.262 5.543.257-.128-2.229-5.865.095-.147 3.804.746.128-.257-3.717-.824.181-.282 5.462-.95-.128-.257-4.974.649 2.599-4.035.32.047.257-.385h3.211v-.257l-3.172-.319 2.295-2.639-.088-.076.694-2.579.79 2.4h.257l-.771-2.826-.079.081-.019-.211 2.411-1.54-.128-.128-2.328 1.164-.27-2.967.25-.295 2.795-.248-.447 2.346h.257l.574-2.066 3.917 4.73.012.354 3.473-.116-1.424 2.492.128.128 1.64-2.077.801 5.032.128-.128-.511-4.888 2.296 1.682.013.251.133-.066-.004.195 3.886.054-.762 3.482-.021-.002-.021.192-.021.192 4.524.489-.907 3.173.044.088-.044.04.08.032.048.097.029-.066 5.535 2.191-.94 3.527.311-.068 1.05-3.151.082.039.078.091.04-.033 3.716 1.797-.14.168.356.214-.87 6.337.313-.074 1.389-5.165 2.653 5.881h-.116v.099l-3.82-.674-.067.38 3.887.686v4.648l.193-.064-.193.193 4.128 2.342 2.77 4.818.168-.095-2.569-5.138-.257.257.097-.167-3.941-2.397.376-4.887h-.227l-2.095-5.695 3.478 2.74.128-.257-3.982-3.597-.023.03-.019-.051 4.923-1.007-.128-.257-5.284.705-.124-.057 4.248-5.4 1.674 2.826.161-.234-1.483-3.04 3.771-4.795 5.513 5.001.192-.211 3.81-.054-.339 3.96.384.033.323-3.773 3.257 2.962-.047.024 1.636 4.658-.095.095 5.066 5.082-.057.057 2.441 4.239.128-.257-2.184-4.367-.053.053-4.828-5.32-.092.092-1.296-4.103.103-.116-.111-.105 3.058-2.772.393 3.534.257-.128.106-3.599 5.681 5.912h-3.089v.257l3.691.369 12.237 12.733.128-.128-12.201-13.202zM54.715 23.97l.659 4.672-5.019.471 4.36-5.143zM43.687 36.976l6-7.076.955 7.041-.139-.075-.197.591-.139-.01-.178-.067-.012.053-6.29-.457zm8.802 9.147l-3.788-.947 1.885-6.034 1.903 6.981zm4.006-17.651l-.34.044.083.332-.188.275-.118-.026-.026.141-.266.177.079.193L51 36.529l-.826-6.893 5.255-.601.023.16.378-.074-.018-.13.243-.028-.057-.381-.241.023-.697-4.924 4.274.625-2.839 4.166zm3.128-4.588l-.03.043-4.33-.604 3.325-3.921 1.034 4.338v.144zm2.511-3.253l.083.022-2.29 2.634-1.014-4.182-.086.016.098-.116 3.956-1.145-.747 2.771zm-2.758-2.158l3.337-3.936.263 2.893-3.6 1.043zm6.803-5.265l-2.51.202 2.596-3.062-.086 2.86zm.509-3.359l.068-.08 3.47 4.198-3.538-.59V9.849zm3.725 8.326l-3.479-4.365 3.479.58v3.785zm.229.379l.028-.057h.128V14.66l3.128 3.784-3.284.11zm4.073.203l2.04-1.508.17 3.306-2.21-1.798zm2.541 2.001l.274-3.384 3.174 3.671-3.448-.287zm3.3 4.266l.98-3.017 2.978 3.445-3.958-.428zM84.028 29l1.206-2.715 3.947 4.565L84.028 29zm10.099 4.223l-3.92-1.781-.042-.051 3.296-3.174.779 4.87-.113.136zm.392-.472L94 28.086l4.684-.356-4.165 5.021zm-.159-5.4l4.273-4.115.406 4.063-4.679.052zm4.936-.358l-.164-4.237.3-.289 3.39.275-3.526 4.251zm.506-4.883l2.913-2.806.175 3.056-3.088-.25zm3.495-3.146l4.387 3.99-4.387-.711v-3.279zm.388 3.864l4.274.509.416 3.745-4.69-4.254zm5.068 4.454l-.05-3.402 3.465 3.151-3.415.251zm-52.221 2.655l3.861 3.717.128-.128-3.717-3.861-.272.272zm-2.869 20.23l.359-.14-1.156-2.954-.359.14 1.156 2.954z"/><path fill="#0894D8" d="M30.721 41.233a1.413 1.413 0 1 0 .001 2.827 1.413 1.413 0 0 0-.001-2.827zM20.06 54.978a.642.642 0 1 0 0 1.284.642.642 0 0 0 0-1.284zm98.137-21.452a1.927 1.927 0 1 0 0 3.855 1.927 1.927 0 0 0 0-3.855zm15.286 6.423a1.028 1.028 0 1 0 0 2.055 1.028 1.028 0 0 0 0-2.055zm5.78 6.422a.642.642 0 1 0 0 1.284.642.642 0 0 0 0-1.284zm-34.939 6.294a.642.642 0 1 0 0 1.284.642.642 0 0 0 0-1.284zm20.938-8.477a.642.642 0 1 0 0 1.284.642.642 0 0 0 0-1.284zm-31.984-4.753a1.028 1.028 0 1 0 0 2.055 1.028 1.028 0 0 0 0-2.055zm29.8.128a1.028 1.028 0 1 0 0 2.055 1.028 1.028 0 0 0 0-2.055zM75.294 18.754a1.028 1.028 0 1 0-2.055 0 1.028 1.028 0 0 0 2.055 0zM63.477 23.25a.642.642 0 1 0 0 1.284.642.642 0 0 0 0-1.284zm-1.413 3.982a.642.642 0 1 0 0 1.284.642.642 0 0 0 0-1.284zm-1.67 5.652a.642.642 0 1 0 0 1.284.642.642 0 0 0 0-1.284zm-2.055 7.835a.642.642 0 1 0 0 1.284.642.642 0 0 0 0-1.284zM56.283 46.5a.642.642 0 1 0 0 1.284.642.642 0 0 0 0-1.284zm20.81-26.847a1.413 1.413 0 1 0 .001 2.827 1.413 1.413 0 0 0-.001-2.827zM38.685 36.48a1.028 1.028 0 1 0 0 2.055 1.028 1.028 0 0 0 0-2.055zm-4.56 5.01a.835.835 0 1 0 0 1.67.835.835 0 0 0 0-1.67zm-5.844 6.294a.642.642 0 1 0 0 1.284.642.642 0 0 0 0-1.284zm23.635 13.102a.642.642 0 1 0 0 1.284.642.642 0 0 0 0-1.284zm-7.001-17.855a1.092 1.092 0 1 0 0 2.184 1.092 1.092 0 0 0 0-2.184zm4.946-12.202a1.413 1.413 0 1 0-.001-2.827 1.413 1.413 0 0 0 .001 2.827zm20.937-17.855a1.413 1.413 0 1 0 .001 2.827 1.413 1.413 0 0 0-.001-2.827zM81.46 19.91a1.541 1.541 0 1 0 0 3.082 1.541 1.541 0 0 0 0-3.082zm8.349 10.405a1.028 1.028 0 1 0 0 2.055 1.028 1.028 0 0 0 0-2.055zm3.918-1.285a1.349 1.349 0 1 0 0-2.698 1.349 1.349 0 0 0 0 2.698zm23.828 1.799a1.028 1.028 0 1 0-2.055 0 1.028 1.028 0 0 0 2.055 0zm-9.249-8.992a1.541 1.541 0 1 0 0 3.082 1.541 1.541 0 0 0 0-3.082zm18.754 11.047a1.413 1.413 0 1 0 .001 2.827 1.413 1.413 0 0 0-.001-2.827zM43.053 38.15a1.028 1.028 0 1 0 0-2.055 1.028 1.028 0 0 0 0 2.055zm20.359-21.965a1.734 1.734 0 1 0 0 3.467 1.734 1.734 0 0 0 0-3.467zm34.233 28.773a1.028 1.028 0 1 0 0 2.055 1.028 1.028 0 0 0 0-2.055zm3.982 2.569a1.028 1.028 0 1 0 0 2.055 1.028 1.028 0 0 0 0-2.055zm-46.885-3.853a1.028 1.028 0 1 0 2.055 0 1.028 1.028 0 0 0-2.055 0zm3.468-9.763a1.413 1.413 0 1 0 .001 2.827 1.413 1.413 0 0 0-.001-2.827zm-3.982 18.112a1.028 1.028 0 1 0 0 2.055 1.028 1.028 0 0 0 0-2.055zm16.313-34.425a1.028 1.028 0 1 0 0 2.055 1.028 1.028 0 0 0 0-2.055zm13.295 10.405a1.092 1.092 0 1 0 0 2.184 1.092 1.092 0 0 0 0-2.184zm4.881 5.78a1.092 1.092 0 1 0 0 2.184 1.092 1.092 0 0 0 0-2.184zM54.87 25.048a1.67 1.67 0 1 0 0-3.34 1.67 1.67 0 0 0 0 3.34zm5.267 4.239a.899.899 0 1 0 0 1.798.899.899 0 0 0 0-1.798zm-1.285 8.992a.899.899 0 1 0-1.798 0 .899.899 0 0 0 1.798 0zm-8.606 7.129c0-.887-.748-1.606-1.67-1.606-.922 0-1.67.719-1.67 1.606s.748 1.606 1.67 1.606c.922 0 1.67-.719 1.67-1.606zm-1.927 1.991a.642.642 0 1 0 0 1.284.642.642 0 0 0 0-1.284zm-3.596-5.395a.642.642 0 1 0 0-1.284.642.642 0 0 0 0 1.284zm27.874-21.452a.77.77 0 1 0 0 1.542.77.77 0 0 0 0-1.542zM51.531 55.106a1.028 1.028 0 1 0 0 2.055 1.028 1.028 0 0 0 0-2.055zm1.926 1.541a.642.642 0 1 0 0 1.284.642.642 0 0 0 0-1.284zm-.257-6.551a.642.642 0 1 0 1.284 0 .642.642 0 0 0-1.284 0zM64.119 19.91a.642.642 0 1 0 0 1.284.642.642 0 0 0 0-1.284zm1.541-4.496a.642.642 0 1 0 0 1.284.642.642 0 0 0 0-1.284zm-3.532 4.753a.963.963 0 1 0 0 1.926.963.963 0 0 0 0-1.926zm12.909 3.468a.642.642 0 1 0 0 1.284.642.642 0 0 0 0-1.284zm-8.606-11.56a1.413 1.413 0 1 0 .001 2.827 1.413 1.413 0 0 0-.001-2.827zm14.001 11.946a1.028 1.028 0 1 0 0 2.055 1.028 1.028 0 0 0 0-2.055zm4.817.642a1.22 1.22 0 1 0 0 2.44 1.22 1.22 0 0 0 0-2.44zm14.836 6.166a.642.642 0 1 0 1.284 0 .642.642 0 0 0-1.284 0zm.771 2.183a.642.642 0 1 0-1.284 0 .642.642 0 0 0 1.284 0zm-1.541 4.239a.642.642 0 1 0 0 1.284.642.642 0 0 0 0-1.284zm-.321-13.359a1.477 1.477 0 1 0 0-2.953 1.477 1.477 0 0 0 0 2.953zm5.587-1.156a1.413 1.413 0 1 0-2.827.001 1.413 1.413 0 0 0 2.827-.001zm8.285 3.468a1.22 1.22 0 1 0 0 2.44 1.22 1.22 0 0 0 0-2.44zm-4.238.129a1.22 1.22 0 1 0 0 2.44 1.22 1.22 0 0 0 0-2.44zm3.853 3.982a1.22 1.22 0 1 0 0 2.44 1.22 1.22 0 0 0 0-2.44zm8.028.128a1.028 1.028 0 1 0 0 2.055 1.028 1.028 0 0 0 0-2.055zm2.891 2.698a.835.835 0 1 0 0 1.67.835.835 0 0 0 0-1.67zm-67.117 4.624a5.523 5.523 0 1 0-11.045 0 5.523 5.523 0 0 0 11.045 0zm42.004-3.982a3.725 3.725 0 1 0-7.45 0 3.725 3.725 0 0 0 7.45 0zm.835-3.597a2.505 2.505 0 1 0 0-5.01 2.505 2.505 0 0 0 0 5.01zM77.157 14.772a1.863 1.863 0 1 0 0 3.726 1.863 1.863 0 0 0 0-3.726zm-17.47 6.808a2.248 2.248 0 1 0 0 4.496 2.248 2.248 0 0 0 0-4.496zm-3.853 11.175a3.276 3.276 0 1 0 0-6.553 3.276 3.276 0 0 0 0 6.553zm-3.661 17.727a1.541 1.541 0 1 0-3.082 0 1.541 1.541 0 0 0 3.082 0zm45.6-11.047a1.798 1.798 0 1 0 0 3.596 1.798 1.798 0 0 0 0-3.596zm-58.959-7.964a1.798 1.798 0 1 0 0 3.596 1.798 1.798 0 0 0 0-3.596zm-3.854 4.753a1.798 1.798 0 1 0 0 3.596 1.798 1.798 0 0 0 0-3.596zM66.559 6.936a2.184 2.184 0 1 0 0 4.368 2.184 2.184 0 0 0 0-4.368zm-7.771 13.616a1.863 1.863 0 1 0 0-3.726 1.863 1.863 0 0 0 0 3.726zm44.316-3.982a1.863 1.863 0 1 0 0 3.726 1.863 1.863 0 0 0 0-3.726zm17.341 8.992a1.734 1.734 0 1 0 0 3.467 1.734 1.734 0 0 0 0-3.467zM42.218 39.049a1.606 1.606 0 1 0 0 3.212 1.606 1.606 0 0 0 0-3.212zm12.267 7.322a1.798 1.798 0 1 0-3.596 0 1.798 1.798 0 0 0 3.596 0zm8.285-30.7a1.863 1.863 0 1 0 0-3.726 1.863 1.863 0 0 0 0 3.726z"/><g><path fill-rule="evenodd" clip-rule="evenodd" fill="#0894D8" d="M120.381 21.451l-3.211 3.469-14.002-13.616-12.203 14.258L78.12 9.377l-2.312 2.826L66.688 0 44.08 31.471l-5.395-5.395-14.386 18.882L38.685 29.03l4.753 4.881 23.25-30.057L74.78 14.9l2.313-2.697 12.973 15.8 13.102-13.488 13.488 12.845 3.725-3.982 17.341 17.855z"/></g></svg>