<svg xmlns="http://www.w3.org/2000/svg" xmlns:xlink="http://www.w3.org/1999/xlink" width="725" height="80" viewBox="0 0 725 80"><defs><path class="path1" d="M29.917 13.535h-.411l-4.569-8.273c-.197-.358-.694-.651-1.103-.651H9.973c-.409 0-.906.293-1.103.651L4.3 13.535h-.41c-.818 0-1.487.669-1.487 1.487v7.436c0 .818.669 1.487 1.487 1.487h1.487v2.231a2.237 2.237 0 0 0 2.231 2.231h.743a2.237 2.237 0 0 0 2.231-2.231v-2.231h12.642v2.231a2.237 2.237 0 0 0 2.231 2.231h.743a2.237 2.237 0 0 0 2.231-2.231v-2.231h1.487c.818 0 1.487-.669 1.487-1.487v-7.436a1.49 1.49 0 0 0-1.486-1.487zm-23.424 5.95a1.859 1.859 0 1 1 0-3.717 1.859 1.859 0 0 1 0 3.717zm1.488-5.95l3.014-6.026c.183-.367.667-.666 1.076-.666h9.667c.409 0 .893.299 1.076.666l3.014 6.026H7.981zm19.334 5.95a1.858 1.858 0 1 1 0-3.718 1.859 1.859 0 1 1 0 3.718z" id="a"/><path class="path1" d="M1.882 5.12c-1.882 0-.941.499 0 1.263L16 17.128 30.118 6.416c.942-.765 1.882-1.297 0-1.297H1.883zM0 7.645v15.826c0 .931.952 2.129 1.706 2.129h28.589c.754 0 1.706-1.197 1.706-2.129V7.645l-16 12.208-16-12.208z" id="b"/><path class="path1" d="M20.811 30.788L16.285 17.28H1.576L29.863 1.405z" id="c"/><path class="path1" d="M16 .64C7.53.64.64 7.53.64 16S7.53 31.36 16 31.36c8.469 0 15.36-6.891 15.36-15.36S24.469.64 16 .64zm1.92 28v-5.6h-3.84v5.6A12.81 12.81 0 0 1 3.36 17.92h5.6v-3.84h-5.6A12.81 12.81 0 0 1 14.08 3.36v5.6h3.84v-5.6a12.81 12.81 0 0 1 10.72 10.72h-5.6v3.84h5.6a12.81 12.81 0 0 1-10.72 10.72z" id="d"/><path class="path1" d="M7.336.64c-.872 0-1.576.721-1.576 1.617v27.485c0 .808.788 1.617 1.576 1.617s1.575-.81 1.575-1.617V13.17c.538-.235 1.062-.405 1.576-.405 3.151 0 7.798 4.043 11.028 4.043 1.377 0 3.348-.557 4.726-1.617V3.873c-1.563 1.203-3.146 2.426-4.726 2.426-3.151 0-7.866-4.042-11.028-4.042-.531 0-1.05.097-1.576.202v-.202c0-.895-.703-1.617-1.575-1.617z" id="e"/><path class="path1" d="M26.344 16H5.851c-.597 0-1.089-.513-1.089-1.097 0-.097.018-.207.038-.296l1.091-7.615c.093-.495.538-.592 1.071-.592h18.274c.529 0 .979.089 1.07.582l1.091 7.754c.017.09.038.143.038.241-.001.584-.495 1.023-1.091 1.023zm-.82 8.541c-1.154 0-2.09-.908-2.09-2.04 0-1.125.936-2.031 2.09-2.031 1.146 0 2.084.907 2.084 2.031 0 1.132-.938 2.04-2.084 2.04zm-18.881 0c-1.146 0-2.082-.908-2.082-2.04 0-1.125.936-2.031 2.082-2.031 1.157 0 2.091.907 2.091 2.031 0 1.132-.934 2.04-2.091 2.04zM10.24 1.92h12.8v1.92h-12.8c-1.28 0-1.28-1.92 0-1.92zm18.049 2.938c-.374-1.8-1.466-2.525-3.247-3.25C23.264.886 19.144.021 16.045.021c-3.112 0-7.254.866-9.034 1.587-1.78.725-2.854 1.45-3.225 3.25L2.559 14.88v13.921h1.92v1.28c0 2.56 3.2 2.56 3.2 0v-1.28h16v1.28c0 2.56 3.84 2.56 3.84 0v-1.28h1.92V14.88L28.288 4.858z" id="f"/><path class="path1" d="M15.261 6.047c1.288-.034 2.303-1.13 2.269-2.438-.034-1.325-1.101-2.353-2.39-2.329-1.282.035-2.296 1.13-2.269 2.445.033 1.315 1.108 2.356 2.39 2.323zm7.91 7.899l-3.411-1.905-2.824-4.491c-.453-.577-1.161-1.004-1.969-.994-.607.021-1.142.3-1.569.676l-4.254 4.347c-.14.15-.237.341-.27.55l-.545 4.788c-.006.052-.006.095-.01.147A1.066 1.066 0 0 0 9.4 18.108c.545-.013.961-.485 1.021-1.003l.448-4.109 1.482-1.506-1.325 11.515-2.457 5.433c-.074.191-.15.458-.144.71.024.888.748 1.591 1.619 1.571.617-.017 1.119-.397 1.389-.936l2.632-5.864c.053-.157.24-.54.246-.713l.307-2.838 2.71 9.23c.233.645.828 1.133 1.542 1.113.868-.024 1.562-.759 1.542-1.65-.007-.116-.041-.191-.047-.325l-3.766-12.799.481-4.159 1.062 1.68a.98.98 0 0 0 .287.283l3.725 2.086c.18.058.321.106.486.106a1.075 1.075 0 0 0 .528-1.989z" id="g"/><path class="path1" d="M7.234 27.613c2.681 0 4.854-2.23 4.854-4.975 0-2.753-2.173-4.984-4.854-4.984-2.675 0-4.85 2.231-4.85 4.984 0 2.745 2.175 4.975 4.85 4.975zM1.28 22.638c0-3.377 2.671-6.109 5.954-6.109 3.292 0 5.958 2.733 5.958 6.109 0 3.375-2.666 6.101-5.958 6.101-3.283 0-5.954-2.725-5.954-6.101zm23.489 5.036c2.671 0 4.847-2.23 4.847-4.977 0-2.751-2.176-4.982-4.847-4.982-2.682 0-4.859 2.23-4.859 4.982 0 2.746 2.177 4.977 4.859 4.977zm-5.963-4.976c0-3.375 2.671-6.107 5.962-6.107 3.28 0 5.951 2.732 5.951 6.108 0 3.37-2.671 6.102-5.951 6.102-3.291 0-5.962-2.732-5.962-6.102zm.019-14.909c1.236 0 2.241-1.024 2.241-2.291S20.061 3.2 18.825 3.2s-2.241 1.03-2.241 2.298 1.004 2.291 2.241 2.291zm.094 5.651c-.325 0-.675-.195-.933-.615l-1.455-2.351-3.002 3.041 2.781 1.494c1.145.562.97 1.587.97 1.587v6.461c0 .733-.566 1.329-1.28 1.329s-1.28-.596-1.28-1.329v-5.172l-4.835-2.746a1.945 1.945 0 0 1-.969-1.681c0-.495.177-.95.481-1.288l4.735-4.861c.588-.685 1.407-.576 1.407-.576.992 0 1.514.888 1.514.888l2.356 3.953 3.63-.007c1.28 0 1.28 1.874 0 1.874h-4.121z" id="h"/><path class="path1" d="M25.333 5.333q.573 0 .953.38t.38.953q0 .563-.385.948l-8.396 8.385 8.396 8.385q.385.385.385.948 0 .573-.38.953t-.953.38q-.563 0-.948-.385L16 17.884 7.615 26.28q-.385.385-.948.385-.573 0-.953-.38t-.38-.953q0-.563.385-.948l8.396-8.385-8.396-8.385q-.385-.385-.385-.948 0-.573.38-.953t.953-.38q.563 0 .948.385L16 14.114l8.385-8.396q.385-.385.948-.385z" id="i"/><path class="path1" d="M4 6.667h24q.552 0 .943.391t.391.943-.391.943-.943.391H4q-.552 0-.943-.391t-.391-.943.391-.943T4 6.667zm0 16h24q.552 0 .943.391t.391.943-.391.943-.943.391H4q-.552 0-.943-.391t-.391-.943.391-.943.943-.391zm0-8h24q.552 0 .943.391t.391.943-.391.943-.943.391H4q-.552 0-.943-.391t-.391-.943.391-.943.943-.391z" id="j"/><path class="path1" d="M28.929 7.286q-1.196 1.75-2.893 2.982.018.25.018.75 0 2.321-.679 4.634t-2.063 4.437-3.295 3.759-4.607 2.607-5.768.973q-4.839 0-8.857-2.589.625.071 1.393.071 4.018 0 7.161-2.464-1.875-.036-3.357-1.152t-2.036-2.848q.589.089 1.089.089.768 0 1.518-.196-2-.411-3.313-1.991t-1.313-3.67v-.071q1.214.679 2.607.732-1.179-.786-1.875-2.054t-.696-2.75q0-1.571.786-2.911Q4.91 8.285 8.008 9.883t6.634 1.777q-.143-.679-.143-1.321 0-2.393 1.688-4.08t4.08-1.688q2.5 0 4.214 1.821 1.946-.375 3.661-1.393-.661 2.054-2.536 3.179 1.661-.179 3.321-.893z" id="k"/><path class="path1" d="M9.125 9.929h4.589L13.178 15H9.124v14.714H3.035V15H-.001V9.929h3.036V6.875q0-3.25 1.536-4.92T9.625.285h4.054v5.071h-2.536q-.696 0-1.116.116t-.607.42-.241.616-.054.884v2.536z" id="l"/><path class="path1" d="M27.429 16q0 4.482-2.616 8.063t-6.759 4.955q-.482.089-.705-.125t-.223-.536v-3.768q0-1.732-.929-2.536 1.018-.107 1.83-.321t1.679-.696 1.446-1.188.946-1.875.366-2.688q0-2.161-1.411-3.679.661-1.625-.143-3.643-.5-.161-1.446.196t-1.643.786l-.679.429q-1.661-.464-3.429-.464t-3.429.464q-.286-.196-.759-.482t-1.491-.688-1.536-.241q-.786 2.018-.125 3.643-1.411 1.518-1.411 3.679 0 1.518.366 2.679t.938 1.875 1.438 1.196 1.679.696 1.83.321q-.714.643-.875 1.839-.375.179-.804.268t-1.018.089-1.17-.384-.991-1.116q-.339-.571-.866-.929t-.884-.429l-.357-.054q-.375 0-.518.08t-.089.205.161.25.232.214l.125.089q.393.179.777.679t.563.911l.179.411q.232.679.786 1.098t1.196.536 1.241.125.991-.063l.411-.071q0 .679.009 1.589t.009.964q0 .321-.232.536t-.714.125q-4.143-1.375-6.759-4.955T0 15.996q0-3.732 1.839-6.884T6.83 4.121t6.884-1.839 6.884 1.839 4.991 4.991 1.839 6.884z" id="m"/><path class="path1" d="M6.857 24q0 1.429-1 2.429t-2.429 1-2.429-1-1-2.429 1-2.429 2.429-1 2.429 1 1 2.429zM16 26.196q.036.5-.304.857-.321.375-.839.375h-2.411q-.446 0-.768-.295t-.357-.741q-.393-4.089-3.295-6.991t-6.991-3.295q-.446-.036-.741-.357t-.295-.768V12.57q0-.518.375-.839.304-.304.768-.304h.089q2.857.232 5.464 1.438t4.625 3.241q2.036 2.018 3.241 4.625t1.438 5.464zm9.143.036q.036.482-.321.839-.321.357-.821.357h-2.554q-.464 0-.795-.313t-.348-.759q-.214-3.839-1.804-7.295t-4.134-6-6-4.134-7.295-1.821q-.446-.018-.759-.348t-.313-.777V3.427q0-.5.357-.821.321-.321.786-.321h.054q4.679.232 8.955 2.143t7.598 5.25q3.339 3.321 5.25 7.598t2.143 8.955z" id="n"/><path class="path1" d="M26 21.714q0-.714-.5-1.214l-3.714-3.714q-.5-.5-1.214-.5-.75 0-1.286.571.054.054.339.33t.384.384.268.339.232.455.063.491q0 .714-.5 1.214t-1.214.5q-.268 0-.491-.063t-.455-.232-.339-.268-.384-.384-.33-.339q-.589.554-.589 1.304 0 .714.5 1.214l3.679 3.696q.482.482 1.214.482.714 0 1.214-.464l2.625-2.607q.5-.5.5-1.196zM13.446 9.125q0-.714-.5-1.214L9.267 4.215q-.5-.5-1.214-.5-.696 0-1.214.482L4.214 6.804q-.5.5-.5 1.196 0 .714.5 1.214l3.714 3.714q.482.482 1.214.482.75 0 1.286-.554-.054-.054-.339-.33t-.384-.384-.268-.339-.232-.455-.063-.491q0-.714.5-1.214t1.214-.5q.268 0 .491.063t.455.232.339.268.384.384.33.339q.589-.554.589-1.304zm15.983 12.589q0 2.143-1.518 3.625l-2.625 2.607q-1.482 1.482-3.625 1.482-2.161 0-3.643-1.518l-3.679-3.696q-1.482-1.482-1.482-3.625 0-2.196 1.571-3.732l-1.571-1.571q-1.536 1.571-3.714 1.571-2.143 0-3.643-1.5l-3.714-3.714Q.286 10.143.286 8t1.518-3.625l2.625-2.607Q5.911.286 8.054.286q2.161 0 3.643 1.518L15.376 5.5q1.482 1.482 1.482 3.625 0 2.196-1.571 3.732l1.571 1.571q1.536-1.571 3.714-1.571 2.143 0 3.643 1.5l3.714 3.714q1.5 1.5 1.5 3.643z" id="o"/><path class="path1" d="M27.429 16q0 3.732-1.839 6.884t-4.991 4.991-6.884 1.839q-1.982 0-3.893-.571 1.054-1.661 1.393-2.929.161-.607.964-3.768.357.696 1.304 1.205t2.036.509q2.161 0 3.857-1.223t2.625-3.366.929-4.821q0-2.036-1.063-3.821t-3.08-2.911-4.554-1.125q-1.875 0-3.5.518T7.974 8.786t-1.946 1.973-1.196 2.313-.384 2.393q0 1.857.714 3.268t2.089 1.982q.536.214.679-.357.036-.125.143-.554t.143-.536q.107-.411-.196-.768-.911-1.089-.911-2.696 0-2.696 1.866-4.634t4.884-1.938q2.696 0 4.205 1.464t1.509 3.804q0 3.036-1.223 5.161t-3.134 2.125q-1.089 0-1.75-.777t-.411-1.866q.143-.625.473-1.67t.536-1.839.205-1.348q0-.893-.482-1.482t-1.375-.589q-1.107 0-1.875 1.018t-.768 2.536q0 1.304.446 2.179l-1.768 7.464q-.304 1.25-.232 3.161-3.679-1.625-5.946-5.018T.001 16.001q0-3.732 1.839-6.884t4.991-4.991 6.884-1.839 6.884 1.839 4.991 4.991 1.839 6.884z" id="p"/><path class="path1" d="M15.643 26.161q0-.375-.08-.723t-.17-.643-.313-.616-.375-.545-.473-.527-.491-.455-.571-.455-.554-.411-.589-.411-.545-.375q-.304-.036-.893-.036-.964 0-1.893.125t-1.929.446-1.75.821-1.232 1.339-.482 1.911q0 1.214.634 2.17t1.661 1.5 2.152.813 2.268.268q1.054 0 2.009-.223t1.795-.696 1.33-1.313.491-1.964zM13.5 10.768q0-1.071-.295-2.277t-.839-2.33-1.5-1.857-2.134-.732q-1.661 0-2.571 1.232T5.25 7.75q0 .839.205 1.768t.634 1.857 1 1.67 1.393 1.205 1.732.464q1.732 0 2.509-1.08t.777-2.866zm-2.339-8.482h7.804l-2.411 1.411h-2.411q1.268.804 1.964 2.25t.696 3.018q0 1.321-.411 2.348t-1 1.652-1.179 1.152-1 1.089-.411 1.205q0 .464.295.911t.768.857 1.045.857 1.143.991 1.045 1.179.768 1.518.295 1.902q0 2.857-2.5 5.036-2.714 2.339-7.5 2.339-1.054 0-2.134-.179t-2.179-.598-1.938-1.036-1.375-1.589-.536-2.17q0-1.089.661-2.411.571-1.143 1.714-1.973t2.589-1.268 2.768-.643 2.679-.241q-1.143-1.482-1.143-2.661 0-.214.036-.42t.089-.348.143-.384.125-.384q-.714.089-1.25.089-2.661 0-4.563-1.75T1.945 9.642q0-2.5 1.696-4.473T7.82 2.642q1.679-.357 3.339-.357zm18.553 4.571v2.286h-4.571v4.571h-2.286V9.143h-4.571V6.857h4.571V2.286h2.286v4.571h4.571z" id="q"/><path class="path1" d="M6.232 11.161v17.696H.339V11.161h5.893zm.375-5.465Q6.625 7 5.705 7.875t-2.42.875h-.036q-1.464 0-2.357-.875t-.893-2.179q0-1.321.92-2.188t2.402-.866 2.375.866.911 2.188zm20.822 13.018v10.143h-5.875v-9.464q0-1.875-.723-2.938t-2.259-1.063q-1.125 0-1.884.616t-1.134 1.527q-.196.536-.196 1.446v9.875H9.483q.036-7.125.036-11.554t-.018-5.286l-.018-.857h5.875v2.571h-.036q.357-.571.732-1t1.009-.929 1.554-.777 2.045-.277q3.054 0 4.911 2.027t1.857 5.938z" id="r"/><path class="path1" d="M22.857 16q0-.661-.536-.964l-9.143-5.714q-.554-.357-1.161-.036-.589.321-.589 1v11.429q0 .679.589 1 .286.143.554.143.357 0 .607-.179l9.143-5.714q.536-.304.536-.964zM32 16q0 1.714-.018 2.679t-.152 2.438-.402 2.634q-.286 1.304-1.232 2.196t-2.214 1.036q-3.964.446-11.982.446t-11.982-.446q-1.268-.143-2.223-1.036T.554 23.751Q.304 22.59.17 21.117t-.152-2.438T0 16t.018-2.679.152-2.438.402-2.634q.286-1.304 1.232-2.196t2.214-1.036Q7.982 4.571 16 4.571t11.982.446q1.268.143 2.223 1.036t1.241 2.196q.25 1.161.384 2.634t.152 2.438T32 16z" id="s"/><path class="path1" d="M16.571 25.018v2.696l-12.625.018v-2.696zm4.304-6.179v12.518l-.018.625V32L0 31.982V18.839h2.161v11.036h16.571V18.839h2.143zM4.304 20.411l12.571 1.161-.232 2.679L4.054 23.09zm1.214-5.643l12.196 3.268-.696 2.607-12.196-3.268zm2.911-6.232l10.875 6.429-1.375 2.321-10.875-6.429zm6.428-5.911l7.107 10.446-2.214 1.518L12.625 4.16zM22.946 0l2.161 12.446-2.661.464L20.285.464z" id="t"/><path class="path1" d="M20.946 18.982q0-.893-.348-1.634t-.866-1.223-1.304-.875-1.473-.607-1.563-.411l-1.857-.429q-.536-.125-.786-.188t-.625-.205-.536-.286-.295-.375-.134-.536q0-1.375 2.571-1.375.768 0 1.375.214t.964.509.679.598.714.518.857.214q.839 0 1.348-.571t.509-1.375q0-.982-1-1.777T16.64 7.963t-3.25-.411q-1.214 0-2.357.277t-2.134.839-1.589 1.554-.598 2.295q0 1.089.339 1.902t1 1.348 1.429.866 1.839.58l2.607.643q1.607.393 2 .643.571.357.571 1.071 0 .696-.714 1.152t-1.875.455q-.911 0-1.634-.286t-1.161-.688-.813-.804-.821-.688-.964-.286q-.893 0-1.348.536T6.712 20.3q0 1.643 2.179 2.813t5.196 1.17q1.304 0 2.5-.33t2.188-.955 1.58-1.67.589-2.348zm6.483 3.875q0 2.839-2.009 4.848t-4.848 2.009q-2.321 0-4.179-1.429-1.375.286-2.679.286-2.554 0-4.884-.991t-4.018-2.679-2.679-4.018-.991-4.884q0-1.304.286-2.679-1.429-1.857-1.429-4.179 0-2.839 2.009-4.848t4.848-2.009q2.321 0 4.179 1.429 1.375-.286 2.679-.286 2.554 0 4.884.991t4.018 2.679 2.679 4.018.991 4.884q0 1.304-.286 2.679 1.429 1.857 1.429 4.179z" id="u"/><path class="path1" d="M34.232 9.286q.411 1.143-2.679 5.25-.429.571-1.161 1.518-1.393 1.786-1.607 2.339-.304.732.25 1.446.304.375 1.446 1.464h.018l.071.071q2.518 2.339 3.411 3.946.054.089.116.223t.125.473-.009.607-.446.491-1.054.223l-4.571.071q-.429.089-1-.089t-.929-.393l-.357-.214q-.536-.375-1.25-1.143t-1.223-1.384-1.089-1.036-1.009-.277q-.054.018-.143.063t-.304.259-.384.527-.304.929-.116 1.384q0 .268-.063.491t-.134.33l-.071.089q-.321.339-.946.393h-2.054q-1.268.071-2.607-.295t-2.348-.946-1.839-1.179-1.259-1.027l-.446-.429q-.179-.179-.491-.536T6.499 21.3t-1.893-2.696-2.188-3.768-2.33-4.857q-.107-.286-.107-.482t.054-.286l.071-.107q.268-.339 1.018-.339l4.893-.036q.214.036.411.116t.286.152l.089.054q.286.196.429.571.357.893.821 1.848t.732 1.455l.286.518q.518 1.071 1 1.857t.866 1.223.741.688.607.25.482-.089q.036-.018.089-.089t.214-.393.241-.839.17-1.446 0-2.232q-.036-.714-.161-1.304t-.25-.821l-.107-.214q-.446-.607-1.518-.768-.232-.036.089-.429.304-.339.679-.536.946-.464 4.268-.429 1.464.018 2.411.232.357.089.598.241t.366.429.188.571.063.813-.018.982-.045 1.259-.027 1.473q0 .196-.018.75t-.009.857.063.723.205.696.402.438q.143.036.304.071t.464-.196.679-.616.929-1.196 1.214-1.92q1.071-1.857 1.911-4.018.071-.179.179-.313t.196-.188l.071-.054.089-.045.232-.054.357-.009 5.143-.036q.696-.089 1.143.045t.554.295z" id="v"/><path class="path1" d="M4.131 8.962a1.114 1.114 0 0 0-1.566 0 1.089 1.089 0 0 0 0 1.55L15.218 23.04a1.114 1.114 0 0 0 1.566 0l12.653-12.528c.432-.429.434-1.122 0-1.55s-1.136-.429-1.566-.002l-11.87 11.426L4.132 8.962z" id="w"/><path class="path1" d="M28 4.33H17.62l3.117 3.117-7.356 7.356h-.01V27.67h5.593V17.13l5.728-5.728L28 14.709V4.33zM12.824 17.109L4 8.285 7.955 4.33l7.632 7.632-2.752 2.752h-.011v2.395z" id="x"/></defs><g fill="#464646"><use xlink:href="#a"/><use xlink:href="#b" transform="translate(48)"/><use xlink:href="#c" transform="translate(96)"/><use xlink:href="#d" transform="translate(144)"/><use xlink:href="#e" transform="translate(192)"/><use xlink:href="#f" transform="translate(240)"/><use xlink:href="#g" transform="translate(290)"/><use xlink:href="#h" transform="translate(338)"/><use xlink:href="#i" transform="translate(386)"/><use xlink:href="#j" transform="translate(434)"/><use xlink:href="#k" transform="translate(482)"/><use xlink:href="#l" transform="translate(528)"/><use xlink:href="#m" transform="translate(558)"/><use xlink:href="#n" transform="translate(606)"/><use xlink:href="#o" transform="translate(647)"/><use xlink:href="#p" transform="translate(693)"/><use xlink:href="#q" transform="translate(0 48)"/><use xlink:href="#r" transform="translate(48 48)"/><use xlink:href="#s" transform="translate(96 48)"/><use xlink:href="#t" transform="translate(144 48)"/><use xlink:href="#u" transform="translate(192 48)"/><use xlink:href="#v" transform="translate(240 48)"/><use xlink:href="#w" transform="translate(290 48)"/><use xlink:href="#x" transform="translate(338 48)"/></g></svg>