<svg width='200' height='200' fill="#000000" xmlns="http://www.w3.org/2000/svg" xmlns:xlink="http://www.w3.org/1999/xlink" version="1.1" x="0px" y="0px" viewBox="0 0 100 100" enable-background="new 0 0 100 100" xml:space="preserve"><path d="M58.8,20.7c0,0,3,28-18,28.3v0c0,0-0.1,0-0.1,0c0,0-0.1,0-0.1,0v0c-21-0.2-18-28.3-18-28.3C23.6,2,39.2,2.1,40.8,2.2  C42.3,2.1,58,2,58.8,20.7z M47,76.7l-4.3-12.1c7.5-10.4-0.5-11-2-11v0c0,0,0,0,0,0c0,0,0,0,0,0c0,0,0,0,0,0c0,0,0,0,0,0c0,0,0,0,0,0  c0,0,0,0,0,0v0c-1.4,0-9.4,0.5-2,11l-4.3,12.1l-7.3-23c0,0-9.2,4.4-17.3,9.6c-6.2,3.9-7.3,8.1-7.5,14.1l0,3.8v16.7h38.4h0.1h0h0.1  h23.5c-6-4.3-9.9-11.4-9.9-19.4c0-8,4-15.1,10-19.4c-5.5-3.1-10.1-5.3-10.1-5.3L47,76.7z M84.9,83.3L84.9,83.3  C84.8,83.2,84.8,83.2,84.9,83.3l-4.2-5c-0.2-0.2-0.3-0.5-0.3-0.7l-0.6-9.2h0c-0.1-0.9-0.8-1.5-1.7-1.5c-0.9,0-1.6,0.6-1.7,1.5h0l0,0  c0,0,0,0.1,0,0.1l-0.7,10.1c0,0.1,0,0.1,0,0.2l0,0h0c0,0,0,0,0,0c0,0,0,0,0,0.1c0,0.6,0.2,1.2,0.7,1.7c0.1,0.1,0.2,0.2,0.3,0.3  l5.7,4.8l0,0c0.7,0.6,1.6,0.5,2.3-0.1C85.3,84.9,85.4,83.9,84.9,83.3L84.9,83.3z M97.6,78.4c0,10.7-8.7,19.4-19.4,19.4  s-19.4-8.7-19.4-19.4s8.7-19.4,19.4-19.4S97.6,67.8,97.6,78.4z M92.6,78.4c0-7.9-6.4-14.4-14.4-14.4c-7.9,0-14.4,6.4-14.4,14.4  s6.4,14.4,14.4,14.4C86.2,92.8,92.6,86.4,92.6,78.4z"/></svg>